<?xml version="1.0" encoding="UTF-8"?>
<svg id="Layer_1" data-name="Layer 1" xmlns="http://www.w3.org/2000/svg" viewBox="0 0 49.91 49.17">
  <defs>
    <style>
      .cls-1 {
        fill: none;
      }

      .cls-2 {
        fill: #f15a29;
      }

      .cls-3 {
        fill: #fff;
      }
    </style>
  </defs>
  
  <g>
    <path class="cls-1" d="M24.19,35.85c0-.22-.01-.44-.04-.66v1.33c.03-.22.04-.45.04-.68Z"/>
    <path d="M49.91,45.94v3.23h-18.07v-3.23c1.62,0,2.73-.29,3.34-.86.61-.58.92-1.41.92-2.52v-11.81c0-1.17-.08-2.22-.23-3.16-.15-.94-.56-1.79-1.21-2.55-.66-.76-1.67-1.14-3.03-1.14-.36,0-.73.04-1.09.11-.75.13-1.5.38-2.26.78-1.14.6-2.01,1.38-2.62,2.34-.66,1.08-1.08,2.12-1.25,3.11-.18,1-.26,2.2-.26,3.61v2.68c-.17,1.35-.82,2.48-1.98,3.4-1.34,1.06-3.06,1.59-5.15,1.59-.73,0-1.38-.05-1.95-.14V11.31c0-1.76-.28-2.94-.84-3.53-.13-.15-.32-.27-.56-.38-.74-.35-1.97-.54-3.69-.55v-3.17L24.15.66v23.73c1.1-1.17,2.25-2.18,3.43-3.05.29-.22.58-.43.87-.63,1.49-.99,3.56-1.49,6.21-1.49,1.22,0,2.43.18,3.65.53,1.22.35,2.32.86,3.29,1.54.97.68,1.68,1.46,2.13,2.32.96,1.72,1.44,3.94,1.44,6.68v10.52c0,1.97.25,3.31.75,4.04.51.73,1.84,1.09,3.99,1.09Z"/>
    <path d="M14.24,44.92c-.22.21-.48.39-.8.53-.74.33-1.89.49-3.46.49v3.23h18.42v-3.23c-1.38,0-2.37-.22-2.97-.65-.41-.3-.71-.68-.9-1.14-2.23.56-4.83.84-7.8.84-.87,0-1.69-.03-2.49-.07Z"/>
    <path class="cls-2" d="M26.2,7.35c1.81,0,3.05.3,3.73.89.67.59,1.16,1.42,1.48,2.48.53,1.53.98,2.69,1.34,3.47.36.78.86,1.39,1.5,1.83.64.44,1.52.66,2.65.66,1.47,0,2.63-.48,3.49-1.45.86-.97,1.29-2.09,1.29-3.38,0-.91-.2-1.8-.61-2.7s-1.13-1.73-2.18-2.53-2.54-1.45-4.48-1.97-4.31-.77-7.12-.77c-1.1,0-2.14.04-3.14.11v3.62c.66-.17,1.34-.26,2.06-.26Z"/>
    <path class="cls-2" d="M27.58,21.34c-.44-.37-.89-.75-1.37-1.15-.79-.67-1.47-1.26-2.06-1.78v5.97c1.11-1.17,2.25-2.18,3.43-3.05Z"/>
    <path class="cls-2" d="M25.66,27.13c-.66,1.08-1.07,2.12-1.25,3.11-.18,1-.26,2.2-.26,3.6v1.35c.03.22.04.44.04.66,0,.23-.02.46-.04.68v3.37c0,1.64.06,2.84.19,3.6.04.23.11.45.19.65.99-.25,1.91-.54,2.75-.89,2.75-1.16,4.72-2.66,5.91-4.5,1.19-1.84,1.78-3.8,1.78-5.86,0-2.53-.7-4.66-2.09-6.38-.62-.76-1.4-1.6-2.35-2.52-.75.13-1.5.39-2.26.79-1.14.6-2.01,1.38-2.62,2.34Z"/>
    <path class="cls-2" d="M14.23,7.78c-.14-.14-.32-.27-.56-.38-1.26.9-2.19,1.89-2.8,2.95-.97,1.72-1.45,3.31-1.45,4.78,0,1.66.42,3.23,1.27,4.73s2.09,3.06,3.73,4.69c.21.2.44.42.66.64v-13.88c0-1.76-.28-2.94-.84-3.53Z"/>
    <path class="cls-2" d="M14.81,43.99c.15-.56.23-1.44.25-2.61-1.33-.21-2.27-.67-2.81-1.38-.77-1.02-1.26-2.4-1.48-4.15-.47-4.09-2.3-6.14-5.48-6.14-1.59,0-2.88.53-3.84,1.59-.97,1.06-1.45,2.3-1.45,3.7,0,2.13,1.25,4.32,3.75,6.59,2.15,1.95,5.65,3.05,10.49,3.32.27-.26.47-.57.57-.93Z"/>
    <path class="cls-2" d="M24.14,39.89v-3.37c-.16,1.35-.82,2.49-1.97,3.4-1.34,1.06-3.06,1.59-5.16,1.59-.73,0-1.37-.05-1.95-.15-.02,1.17-.1,2.06-.25,2.61-.1.36-.29.67-.57.93.8.05,1.62.07,2.49.07,2.97,0,5.56-.29,7.8-.84-.08-.2-.15-.42-.19-.65-.13-.76-.19-1.96-.19-3.6Z"/>
  </g>
</svg>